<svg width="197" height="60" viewBox="0 0 197 60" fill="none" xmlns="http://www.w3.org/2000/svg">
<path d="M62.7976 33.4188C63.7063 33.4188 64.4864 33.1788 65.1379 32.6988C65.8066 32.2187 66.3381 31.5501 66.7325 30.6928L69.8444 32.493C69.3814 33.7617 68.5327 34.8075 67.2983 35.6305C66.0638 36.4363 64.5893 36.8392 62.8747 36.8392C61.2116 36.8392 59.6943 36.4363 58.3226 35.6305C56.951 34.8247 55.8622 33.6846 55.0564 32.2101C54.2506 30.7185 53.8477 29.0127 53.8477 27.0925C53.8477 25.1723 54.242 23.4749 55.0307 22.0005C55.8365 20.526 56.9253 19.3859 58.2969 18.5801C59.6857 17.7743 61.2116 17.3714 62.8747 17.3714C64.5893 17.3714 66.0638 17.7829 67.2983 18.6058C68.5327 19.4116 69.3814 20.4489 69.8444 21.7176L66.7325 23.5178C66.3381 22.6606 65.8066 21.9919 65.1379 21.5119C64.4864 21.0318 63.7063 20.7918 62.7976 20.7918C61.8374 20.7918 60.9802 21.049 60.2258 21.5633C59.4714 22.0776 58.8713 22.8149 58.4255 23.775C57.9969 24.7179 57.7825 25.8237 57.7825 27.0925C57.7825 28.3612 57.9969 29.4756 58.4255 30.4357C58.8713 31.3958 59.4714 32.133 60.2258 32.6473C60.9802 33.1617 61.8374 33.4188 62.7976 33.4188Z" fill="#173582"/>
<path d="M75.3137 25.318C75.6909 24.5122 76.1967 23.9035 76.8311 23.4921C77.4654 23.0806 78.1855 22.8749 78.9914 22.8749C79.5229 22.8749 79.9858 22.9777 80.3802 23.1835V26.4495C79.9515 26.1409 79.4543 25.9866 78.8885 25.9866C77.8083 25.9866 76.9768 26.3638 76.3938 27.1182C75.8109 27.8725 75.5194 28.9441 75.5194 30.3328V36.5306H71.9446V23.2092H75.0822C75.1679 24.2379 75.2451 24.9408 75.3137 25.318ZM91.7476 23.2092H95.4767L89.4844 38.2793C88.85 39.8738 88.1128 41.0225 87.2726 41.7254C86.4325 42.4455 85.3781 42.8055 84.1093 42.8055C83.4749 42.8055 82.8834 42.7112 82.3347 42.5226C81.8032 42.3512 81.3489 42.1112 80.9717 41.8026L82.3605 39.0766C82.9091 39.4537 83.4835 39.6423 84.0836 39.6423C84.4779 39.6423 84.8123 39.5566 85.0866 39.3852C85.3609 39.2309 85.6267 38.948 85.8839 38.5365C86.1582 38.1422 86.4582 37.5507 86.784 36.762L81.0231 23.2092H85.0094L88.5328 32.3901L91.7476 23.2092Z" fill="#173582"/>
<path d="M104.874 22.8749C105.954 22.8749 106.948 23.1492 107.857 23.6978C108.783 24.2464 109.511 25.0522 110.043 26.1152C110.592 27.1782 110.866 28.4297 110.866 29.8699C110.866 31.31 110.592 32.5616 110.043 33.6246C109.511 34.6704 108.783 35.4676 107.857 36.0162C106.948 36.5649 105.954 36.8392 104.874 36.8392C104.051 36.8392 103.288 36.6763 102.585 36.3506C101.882 36.0248 101.299 35.5276 100.836 34.859V42.4969H97.2609V23.2092H100.399L100.476 24.0836C100.493 24.255 100.51 24.435 100.527 24.6236C100.544 24.8122 100.57 25.0094 100.604 25.2151C101.067 24.4265 101.667 23.8435 102.405 23.4664C103.159 23.072 103.982 22.8749 104.874 22.8749ZM104.051 33.676C104.976 33.676 105.722 33.3417 106.288 32.673C106.871 31.9873 107.162 31.0529 107.162 29.8699C107.162 28.6526 106.88 27.6925 106.314 26.9896C105.748 26.2867 104.994 25.9352 104.051 25.9352C103.159 25.9352 102.396 26.2695 101.762 26.9381C101.144 27.5896 100.836 28.5669 100.836 29.8699C100.836 31.1557 101.144 32.1158 101.762 32.7502C102.379 33.3674 103.142 33.676 104.051 33.676Z" fill="#173582"/>
<path d="M122.568 35.7591C121.694 36.4792 120.476 36.8392 118.916 36.8392C117.476 36.8392 116.31 36.462 115.419 35.7076C114.544 34.9361 114.107 33.5646 114.107 31.5929V26.2181H111.741V23.2092H114.107V19.1202H117.682V23.2092H121.694V26.2181H117.682V31.0014C117.682 31.893 117.836 32.5702 118.145 33.0331C118.453 33.496 118.951 33.7274 119.636 33.7274C120.236 33.7274 120.802 33.5474 121.334 33.1874L122.568 35.7591Z" fill="#173582"/>
<path d="M123.187 29.8699C123.187 28.4812 123.496 27.2553 124.113 26.1924C124.747 25.1294 125.587 24.315 126.633 23.7492C127.679 23.1663 128.811 22.8749 130.028 22.8749C131.228 22.8749 132.343 23.1663 133.371 23.7492C134.417 24.315 135.249 25.1294 135.866 26.1924C136.5 27.2553 136.818 28.4812 136.818 29.8699C136.818 31.2586 136.5 32.4844 135.866 33.5474C135.249 34.6104 134.417 35.4248 133.371 35.9905C132.343 36.5563 131.228 36.8392 130.028 36.8392C128.811 36.8392 127.679 36.5563 126.633 35.9905C125.587 35.4248 124.747 34.6104 124.113 33.5474C123.496 32.4844 123.187 31.2586 123.187 29.8699ZM126.89 29.8699C126.89 31.0529 127.182 31.9958 127.765 32.6988C128.365 33.3845 129.111 33.7274 130.002 33.7274C130.894 33.7274 131.631 33.3845 132.214 32.6988C132.797 31.9958 133.089 31.0529 133.089 29.8699C133.089 28.6869 132.797 27.7439 132.214 27.041C131.631 26.3381 130.894 25.9866 130.002 25.9866C129.111 25.9866 128.365 26.3381 127.765 27.041C127.182 27.7439 126.89 28.6869 126.89 29.8699Z" fill="#173582"/>
<path d="M139.713 17.7058H143.442V33.1874H152.006V36.5306H139.713V17.7058Z" fill="#173582"/>
<path d="M159.754 22.8749C161.555 22.8749 162.961 23.3892 163.972 24.4179C164.984 25.4294 165.49 26.8781 165.49 28.7641V36.5306H162.481C162.463 36.3934 162.438 36.1705 162.403 35.8619C162.386 35.5362 162.352 35.2533 162.301 35.0133C161.906 35.6305 161.392 36.0934 160.757 36.402C160.14 36.6935 159.386 36.8392 158.494 36.8392C157.568 36.8392 156.72 36.6763 155.948 36.3506C155.194 36.0248 154.594 35.5533 154.148 34.9361C153.702 34.3018 153.479 33.556 153.479 32.6988C153.479 31.8072 153.728 31.0357 154.225 30.3842C154.739 29.7156 155.425 29.2012 156.282 28.8412C157.14 28.4812 158.083 28.3011 159.111 28.3011C160.037 28.3011 160.989 28.4555 161.966 28.7641C161.915 26.7924 161.075 25.8066 159.446 25.8066C158.143 25.8066 157.191 26.3895 156.591 27.5554L154.045 26.0895C154.525 25.0951 155.262 24.315 156.257 23.7492C157.251 23.1663 158.417 22.8749 159.754 22.8749ZM161.966 31.13C161.109 30.9243 160.363 30.8214 159.729 30.8214C158.889 30.8214 158.237 30.9757 157.774 31.2843C157.311 31.5758 157.08 31.9958 157.08 32.5445C157.08 33.0416 157.26 33.4274 157.62 33.7017C157.997 33.976 158.477 34.1132 159.06 34.1132C159.832 34.1132 160.509 33.8989 161.092 33.4703C161.675 33.0245 161.966 32.4159 161.966 31.6444V31.13Z" fill="#173582"/>
<path d="M176.277 22.8749C177.752 22.8749 178.918 23.3635 179.775 24.3407C180.632 25.3008 181.061 26.7067 181.061 28.5583V36.5306H177.486V29.7156C177.486 27.281 176.68 26.0638 175.068 26.0638C174.211 26.0638 173.517 26.3981 172.985 27.0667C172.471 27.7182 172.214 28.644 172.214 29.8442V36.5306H168.639V23.2092H171.776C171.862 24.255 171.939 24.9665 172.008 25.3437C172.865 23.6978 174.288 22.8749 176.277 22.8749Z" fill="#173582"/>
<path d="M193.419 16.96H196.994V36.5306H193.856C193.77 35.5362 193.702 34.8676 193.65 34.5247C193.187 35.2962 192.579 35.8791 191.824 36.2734C191.087 36.6506 190.281 36.8392 189.407 36.8392C188.309 36.8392 187.306 36.5649 186.398 36.0162C185.489 35.4676 184.76 34.6704 184.212 33.6246C183.663 32.5616 183.389 31.31 183.389 29.8699C183.389 28.4126 183.663 27.161 184.212 26.1152C184.76 25.0522 185.489 24.2464 186.398 23.6978C187.306 23.1492 188.309 22.8749 189.407 22.8749C190.213 22.8749 190.958 23.0377 191.644 23.3635C192.347 23.6892 192.939 24.1864 193.419 24.8551V16.96ZM190.23 33.7789C191.121 33.7789 191.876 33.4531 192.493 32.8016C193.11 32.1501 193.419 31.1729 193.419 29.8699C193.419 28.584 193.11 27.6325 192.493 27.0153C191.876 26.3809 191.121 26.0638 190.23 26.0638C189.287 26.0638 188.524 26.3981 187.941 27.0667C187.375 27.7354 187.092 28.6698 187.092 29.8699C187.092 31.07 187.375 32.0215 187.941 32.7245C188.524 33.4274 189.287 33.7789 190.23 33.7789Z" fill="#173582"/>
<path fill-rule="evenodd" clip-rule="evenodd" d="M11.8326 4.71472L16.5449 0.0361257C24.9575 0.00755695 41.9702 0 41.9702 0C41.9702 0 46.1609 4.39755 48.2783 6.61357C47.5639 7.16752 46.8754 7.70004 46.1856 8.23361C45.4217 8.82444 44.6562 9.41656 43.8518 10.0405C43.3235 9.48188 42.7827 8.93085 42.2416 8.3794C41.3365 7.45711 40.4303 6.53362 39.5788 5.57146L18.6769 5.40612C16.9904 7.27455 15.228 9.07315 13.4659 10.8714C11.6201 12.7551 9.77464 14.6385 8.01719 16.6013C8.43303 17.2948 8.8646 17.9752 9.29592 18.6552C9.9793 19.7326 10.662 20.8089 11.2805 21.9346C11.7422 22.7713 12.2943 23.0819 13.2529 23.0819C16.2703 23.0722 19.6677 23.0825 23.0766 23.0928C26.6981 23.1038 30.3327 23.1149 33.5384 23.1019C33.602 23.2456 33.8094 23.6347 34.1607 24.2693C34.9186 25.6421 36.7755 28.4778 36.7755 28.4778C36.7755 28.4778 17.7281 28.4813 8.89872 28.5175C8.58146 28.0015 8.56372 27.9752 8.54664 27.9484C8.53173 27.925 8.51732 27.9013 8.30443 27.551C6.53753 24.6457 4.72945 21.7652 2.91268 18.8708C2.27312 17.8518 1.63248 16.8312 0.992188 15.8072C4.63576 12.0796 11.8326 4.71472 11.8326 4.71472ZM34.1127 41.3214C35.8987 38.4141 37.6847 35.5067 39.5008 32.5493L39.5059 32.5443L42.8364 37.7117L28.7207 59.9996C28.7207 59.9996 28.5996 59.8382 28.4898 59.6642C22.5377 50.2301 10.5279 31.1865 10.5279 31.1865H17.0583C17.0583 31.1865 17.4286 31.8078 17.6745 32.2086C20.2003 36.3083 22.709 40.4164 25.2178 44.5245C26.054 45.8937 26.8902 47.2629 27.727 48.6318C27.9056 48.9212 28.1 49.2014 28.3377 49.544C28.4539 49.7116 28.5805 49.8941 28.7207 50.0998C30.5381 47.1403 32.3254 44.2309 34.1127 41.3214Z" fill="#2860D7"/>
</svg>
